<!-- Porte literal de SteeringWheelArtwork.tsx; Eficiencia #1427. -->
<svg xmlns="http://www.w3.org/2000/svg" width="72" height="72" viewBox="0 0 64 64"><g><g stroke-linejoin="round"><path d="M32 7Q58 7 60 31Q60 45 50 53H14Q4 45 4 31Q6 7 32 7ZM32 13Q15 13 11 28L20 25H44L53 28Q49 13 32 13ZM11 36Q13 44 18 47H26L22 39ZM53 36L42 39L38 47H46Q51 44 53 36Z" fill="#f1f1f2" fill-opacity=".13" fill-rule="evenodd" stroke="#f1f1f2" stroke-opacity=".8" stroke-width="1.2"></path><path d="M9 25Q7 34 12 43M55 25Q57 34 52 43" fill="none" stroke="#f1f1f2" stroke-opacity=".28" stroke-width="3" stroke-linecap="round"></path><path d="M31 10H33" stroke="#d8d8d9" stroke-width="4"></path><path d="M29 28H35M30 30H34" stroke="#f1f1f2" stroke-opacity=".4" stroke-width=".8"></path><circle cx="21" cy="28" r="1.8" fill="rgba(12,12,14,.85)" stroke="#719dcc" stroke-width="1.1"></circle><circle cx="19" cy="34" r="1.8" fill="rgba(12,12,14,.85)" stroke="#d6b969" stroke-width="1.1"></circle><circle cx="25" cy="39" r="1.8" fill="rgba(12,12,14,.85)" stroke="#79b584" stroke-width="1.1"></circle><circle cx="43" cy="28" r="1.8" fill="rgba(12,12,14,.85)" stroke="#d95360" stroke-width="1.1"></circle><circle cx="45" cy="34" r="1.8" fill="rgba(12,12,14,.85)" stroke="#d8d8d9" stroke-width="1.1"></circle><circle cx="39" cy="39" r="1.8" fill="rgba(12,12,14,.85)" stroke="#b584bf" stroke-width="1.1"></circle><g><circle cx="28" cy="33" r="2.8" fill="#719dcc" fill-opacity=".85"></circle><path d="M28 30.9v2.6" stroke="rgba(12,12,14,.85)" stroke-width="1.2" stroke-linecap="round"></path></g><g><circle cx="36" cy="33" r="2.8" fill="#d95360" fill-opacity=".85"></circle><path d="M36 30.9v2.6" stroke="rgba(12,12,14,.85)" stroke-width="1.2" stroke-linecap="round"></path></g></g></g></svg>
